
        <svg xmlns="http://www.w3.org/2000/svg" xmlns:xlink="http://www.w3.org/1999/xlink" version="1.1" width="3187.5" 
        height="652.6324317418437" viewBox="0 0 3187.5 652.6324317418437">
			
			<g transform="scale(9.375) translate(10, 10)">
				<defs id="SvgjsDefs1104"></defs><g id="SvgjsG1105" featureKey="monogramFeature-0" transform="matrix(0.7548170320796087,0,0,0.7548170320796087,6.295603193091655,4.95914803033596)" fill="#111111"><path d="M70.38 -6.359999999999999 c0.48 0 0.9 0.42 0.9 0.96 c0 0.48 -0.42 0.9 -0.9 0.9 l-11.28 0 c-2.1 3.66 -26.1 45.66 -31.62 52.44 c-6.72 8.22 -13.5 10.2 -18.54 10.2 c-2.7 0 -4.92 -0.54 -6.3 -1.08 c-6.3 -2.28 -11.04 -7.92 -10.98 -13.14 c0.06 -3.78 2.46 -6.6 6.72 -8.04 c0.48 -0.18 1.02 0.06 1.2 0.6 c0.12 0.48 -0.12 1.02 -0.6 1.14 c-3.54 1.2 -5.4 3.36 -5.46 6.3 c0 4.44 4.14 9.36 9.72 11.4 c3.72 1.32 13.26 3.12 22.8 -8.58 c5.04 -6.18 26.88 -44.22 30.9 -51.24 l-10.56 0 c-0.54 0 -0.96 -0.42 -0.96 -0.9 c0 -0.54 0.42 -0.96 0.96 -0.96 l24 0 z M122.58 -6.299999999999997 c0.36 -0.36 0.96 -0.36 1.32 0 c0.36 0.42 0.3 0.96 -0.06 1.32 l-66.42 63.9 c-0.18 0.18 -0.42 0.24 -0.66 0.24 c-0.12 0 -0.24 -0.06 -0.36 -0.12 c-0.36 -0.12 -0.6 -0.54 -0.54 -0.9 l6.06 -63.84 c0.06 -0.54 0.54 -0.9 1.08 -0.84 c0.48 0 0.84 0.48 0.84 1.02 l-5.88 61.32 z"></path></g><g id="SvgjsG1106" featureKey="nameFeature-0" transform="matrix(0.5686521479425753,0,0,0.5686521479425753,118.69271452288613,0.369518210994797)" fill="#111111"><path d="M20.8 12 c0.36 0 0.6 0.24 0.6 0.6 l0 17.96 c0 6.82 -4.1 10.02 -9.5 10.02 c-5.34 0 -9.3 -2.98 -9.6 -9.42 c-0.02 -0.4 0.24 -0.6 0.6 -0.6 l1.28 0 c0.36 0 0.6 0.2 0.6 0.6 c0.3 4.62 3.06 7.1 7.12 7.1 c4.04 0 7 -2.56 7 -7.7 l0 -16.2 l-12.14 0 c-0.36 0 -0.6 -0.24 -0.6 -0.6 l0 -1.16 c0 -0.36 0.24 -0.6 0.6 -0.6 l14.04 0 z M53.75 39.32 c0.16 0.4 -0.04 0.68 -0.48 0.68 l-1.26 0 c-0.32 0 -0.54 -0.12 -0.68 -0.48 l-2.3 -6.06 l-14.12 0 l-2.3 6.06 c-0.14 0.36 -0.36 0.48 -0.68 0.48 l-1.26 0 c-0.44 0 -0.64 -0.28 -0.48 -0.68 l10.32 -26.84 c0.12 -0.32 0.42 -0.48 0.74 -0.48 l1.48 0 c0.32 0 0.58 0.16 0.7 0.48 z M35.81 31.14 l12.32 0 l-6.16 -16.2 z M84.78 35.12 l0.86 0.86 c0.3 0.28 0.24 0.6 -0.04 0.84 c-2.62 2.42 -5.56 3.7 -9.36 3.7 c-7.94 0 -14 -6.42 -14 -14.4 c0 -8.04 6.06 -14.44 14 -14.44 c3.8 0 6.74 1.4 9.36 3.68 c0.28 0.24 0.34 0.56 0.04 0.84 l-0.86 0.88 c-0.3 0.28 -0.56 0.22 -0.84 -0.02 c-2.16 -1.86 -4.56 -2.96 -7.68 -2.96 c-6.36 0 -11.5 5.14 -11.5 12.02 c0 6.82 5.14 11.96 11.5 11.96 c3.12 0 5.52 -1.08 7.68 -2.96 c0.28 -0.24 0.54 -0.28 0.84 0 z M109.37 40.52 c-7.92 0 -14.3 -6.4 -14.3 -14.4 c0 -8.04 6.38 -14.44 14.3 -14.44 c7.88 0 14.26 6.4 14.26 14.44 c0 8 -6.38 14.4 -14.26 14.4 z M109.37 38.22 c6.62 0 11.86 -5.36 11.86 -12.1 c0 -6.78 -5.24 -12.14 -11.86 -12.14 c-6.66 0 -11.9 5.36 -11.9 12.14 c0 6.74 5.24 12.1 11.9 12.1 z M147.18 24.8 c4.08 1 5.68 4.08 5.68 7.14 c0 5.6 -3.26 8.06 -9.8 8.06 l-9 0 c-0.36 0 -0.6 -0.24 -0.6 -0.6 l0 -26.8 c0 -0.36 0.24 -0.6 0.6 -0.6 l9.2 0 c6.46 0 8.22 3.48 8.22 6.56 c0 2.82 -1.2 5.24 -4.3 6.24 z M148.98000000000002 18.64 c0 -2.92 -1.98 -4.28 -5.94 -4.28 l-7.08 0 l0 9.48 l7.32 0 c3.72 0 5.7 -2.04 5.7 -5.2 z M142.86 37.64 c4.84 0 7.4 -1.32 7.4 -5.66 c0 -3.24 -2.04 -5.9 -7.14 -5.9 l-7.16 0 l0 11.56 l6.9 0 z M201.82 12.48 c0.14 -0.36 0.36 -0.48 0.68 -0.48 l1.26 0 c0.44 0 0.64 0.28 0.48 0.68 l-10.32 26.84 c-0.12 0.32 -0.38 0.48 -0.7 0.48 l-1.48 0 c-0.32 0 -0.62 -0.16 -0.74 -0.48 l-10.32 -26.84 c-0.16 -0.4 0.04 -0.68 0.48 -0.68 l1.26 0 c0.32 0 0.54 0.12 0.68 0.48 l9.36 24.58 z M232.13 14.36 l-8 0 l0 23.28 l8 0 c0.36 0 0.6 0.24 0.6 0.6 l0 1.16 c0 0.36 -0.24 0.6 -0.6 0.6 l-18.5 0 c-0.36 0 -0.6 -0.24 -0.6 -0.6 l0 -1.16 c0 -0.36 0.24 -0.6 0.6 -0.6 l8 0 l0 -23.28 l-8 0 c-0.36 0 -0.6 -0.24 -0.6 -0.6 l0 -1.16 c0 -0.36 0.24 -0.6 0.6 -0.6 l18.5 0 c0.36 0 0.6 0.24 0.6 0.6 l0 1.16 c0 0.36 -0.24 0.6 -0.6 0.6 z M252.07999999999998 24.46 c5.52 1.18 10.26 2.7 10.26 8.52 c0 4.26 -3.06 7.62 -10.14 7.62 c-5.84 0 -9.66 -2.24 -10.04 -6.38 c-0.04 -0.4 0.2 -0.74 0.56 -0.74 l1.36 0 c0.36 0 0.58 0.3 0.6 0.62 c0.26 2.54 3.06 4.2 7.52 4.2 c4.96 0 7.66 -1.74 7.66 -5.36 c0 -4.3 -3.32 -4.96 -7.78 -6.06 c-5.12 -1.26 -9.18 -2.84 -9.18 -8.16 c0 -4.22 3.02 -7.06 9 -7.06 c5.64 0 9.16 2.18 9.58 6.3 c0.04 0.4 -0.2 0.56 -0.56 0.56 l-1.26 0 c-0.36 0 -0.58 -0.12 -0.6 -0.44 c-0.26 -2.44 -2.92 -4.18 -7.18 -4.18 c-3.92 0 -6.6 1.58 -6.6 4.82 c0 3.42 2.7 4.84 6.8 5.74 z M290.87 14.36 l-8 0 l0 23.28 l8 0 c0.36 0 0.6 0.24 0.6 0.6 l0 1.16 c0 0.36 -0.24 0.6 -0.6 0.6 l-18.5 0 c-0.36 0 -0.6 -0.24 -0.6 -0.6 l0 -1.16 c0 -0.36 0.24 -0.6 0.6 -0.6 l8 0 l0 -23.28 l-8 0 c-0.36 0 -0.6 -0.24 -0.6 -0.6 l0 -1.16 c0 -0.36 0.24 -0.6 0.6 -0.6 l18.5 0 c0.36 0 0.6 0.24 0.6 0.6 l0 1.16 c0 0.36 -0.24 0.6 -0.6 0.6 z M323.84 35.12 l0.86 0.86 c0.3 0.28 0.24 0.6 -0.04 0.84 c-2.62 2.42 -5.56 3.7 -9.36 3.7 c-7.94 0 -14 -6.42 -14 -14.4 c0 -8.04 6.06 -14.44 14 -14.44 c3.8 0 6.74 1.4 9.36 3.68 c0.28 0.24 0.34 0.56 0.04 0.84 l-0.86 0.88 c-0.3 0.28 -0.56 0.22 -0.84 -0.02 c-2.16 -1.86 -4.56 -2.96 -7.68 -2.96 c-6.36 0 -11.5 5.14 -11.5 12.02 c0 6.82 5.14 11.96 11.5 11.96 c3.12 0 5.52 -1.08 7.68 -2.96 c0.28 -0.24 0.54 -0.28 0.84 0 z M353.86999999999995 39.28 c0.28 0.4 0.12 0.72 -0.36 0.72 l-1.66 0 c-0.32 0 -0.52 -0.08 -0.72 -0.36 l-10.24 -13.44 l-3.96 4.3 l0 8.9 c0 0.36 -0.24 0.6 -0.6 0.6 l-1.3 0 c-0.36 0 -0.6 -0.24 -0.6 -0.6 l0 -26.8 c0 -0.36 0.24 -0.6 0.6 -0.6 l1.3 0 c0.36 0 0.6 0.24 0.6 0.6 l0 14.5 l13.5 -14.78 c0.2 -0.24 0.44 -0.32 0.72 -0.32 l1.82 0 c0.52 0 0.7 0.36 0.32 0.72 l-10.82 11.74 z"></path></g><g id="SvgjsG1107" featureKey="sloganFeature-0" transform="matrix(0.6084576033950924,0,0,0.6084576033950924,119.57408037394791,30.176755931079043)" fill="#111111"><path d="M18.62 5.08 l2.3 0 l-4.76 14.92 l-2.36 0 l-2.88 -8.82 l-2.8 8.82 l-2.36 0 l-5.06 -14.92 l2.24 0 l3.96 11.16 l2.8 -8.8 l-0.76 -2.36 l2.24 0 l3.76 11.16 z M26 14.02 l0 3.8 l9.2 0 l0 2.18 l-11.38 0 l0 -14.92 l10.5 0 l0 2.2 l-8.32 0 l0 4.52 q0.62 -0.36 1.38 -0.48 q0.56 -0.1 1.44 -0.1 l3.26 0 l0 2.22 l-3.26 0 q-0.82 0 -1.44 0.1 q-0.76 0.14 -1.38 0.48 z M40.86 7.279999999999999 l0 4.56 q0.62 -0.36 1.4 -0.5 q0.58 -0.1 1.44 -0.1 l2.56 0 q1.04 0 1.63 -0.52 t0.59 -1.54 q0 -1.9 -2.22 -1.9 l-5.4 0 z M40.86 14.059999999999999 l0 3.76 l5.62 0 q0.66 0 1.26 -0.24 q0.66 -0.24 1.04 -0.7 q0.44 -0.54 0.44 -1.24 q0 -1.2 -0.94 -1.74 q-0.74 -0.44 -2.02 -0.44 l-2.56 0 q-1.72 0 -2.84 0.6 z M51.38 15.92 q0 1.4 -0.78 2.38 q-0.68 0.86 -1.92 1.3 q-1.1 0.4 -2.42 0.4 l-7.56 0 l0 -14.92 l7.56 0 q1.28 0 2.27 0.48 t1.55 1.38 q0.58 0.94 0.58 2.22 q0 0.98 -0.35 1.75 t-0.99 1.19 q0.86 0.4 1.42 1.32 q0.64 1.06 0.64 2.5 z M63.38 7.279999999999999 l0 10.54 l3.38 0 q1.4 0 2.52 -0.72 q1.06 -0.7 1.66 -1.88 t0.6 -2.58 q0 -1.46 -0.57 -2.68 t-1.63 -1.94 q-1.14 -0.74 -2.62 -0.74 l-3.34 0 z M60.06 7.279999999999999 l-0.96 -2.2 l7.6 0 q1.98 0 3.62 1.02 q1.58 0.98 2.5 2.68 t0.92 3.7 q0 1.5 -0.59 2.97 t-1.63 2.57 q-1 1.08 -2.14 1.54 q-1.1 0.44 -2.62 0.44 l-5.52 0 l0 -12.72 l-1.18 0 z M79.32 14.02 l0 3.8 l9.2 0 l0 2.18 l-11.38 0 l0 -14.92 l10.5 0 l0 2.2 l-8.32 0 l0 4.52 q0.62 -0.36 1.38 -0.48 q0.56 -0.1 1.44 -0.1 l3.26 0 l0 2.22 l-3.26 0 q-0.82 0 -1.44 0.1 q-0.76 0.14 -1.38 0.48 z M105.41999999999999 5.08 l-6.26 14.92 l-2.58 0 l-6.16 -14.92 l2.36 0 l5.1 12.48 l5.14 -12.48 l2.4 0 z M110.39999999999999 14.02 l0 3.8 l9.2 0 l0 2.18 l-11.38 0 l0 -14.92 l10.5 0 l0 2.2 l-8.32 0 l0 4.52 q0.62 -0.36 1.38 -0.48 q0.56 -0.1 1.44 -0.1 l3.26 0 l0 2.22 l-3.26 0 q-0.82 0 -1.44 0.1 q-0.76 0.14 -1.38 0.48 z M133.56 20 l-10.46 0 l0 -14.92 l2.18 0 l0 12.74 l8.28 0 l0 2.18 z M149.05999999999997 12.440000000000001 q0 -1.6 -0.82 -2.9 q-0.78 -1.26 -2.13 -1.98 t-2.93 -0.72 q-1.64 0 -2.99 0.74 t-2.11 2.02 q-0.78 1.34 -0.78 2.98 q0 1.56 0.84 2.88 q0.8 1.24 2.15 1.97 t2.92 0.73 t2.92 -0.76 t2.13 -2.04 q0.8 -1.34 0.8 -2.92 z M151.21999999999997 12.559999999999999 q0 2.16 -1.12 3.98 q-1.08 1.74 -2.93 2.77 t-3.99 1.03 q-2.22 0 -4.08 -1.08 q-1.82 -1.04 -2.86 -2.86 q-1.08 -1.86 -1.08 -4.08 q0 -2.14 1.14 -3.94 q1.08 -1.72 2.93 -2.73 t3.97 -1.01 q2.18 0 4.04 1.06 q1.82 1.04 2.88 2.82 q1.1 1.86 1.1 4.04 z M159.64 11.46 l2.64 0 q2.2 0 2.2 -2.12 q0 -1.1 -0.55 -1.59 t-1.65 -0.49 l-5.48 0 l0 4.8 q0.62 -0.36 1.4 -0.5 q0.58 -0.1 1.44 -0.1 z M156.79999999999998 20 l-2.18 0 l0 -14.92 l7.66 0 q1.32 0 2.3 0.51 t1.52 1.47 t0.54 2.27 t-0.54 2.29 t-1.53 1.51 t-2.29 0.53 l-2.64 0 q-1.72 0 -2.84 0.6 l0 5.74 z M172.01999999999998 14.02 l0 3.8 l9.2 0 l0 2.18 l-11.38 0 l0 -14.92 l10.5 0 l0 2.2 l-8.32 0 l0 4.52 q0.62 -0.36 1.38 -0.48 q0.56 -0.1 1.44 -0.1 l3.26 0 l0 2.22 l-3.26 0 q-0.82 0 -1.44 0.1 q-0.76 0.14 -1.38 0.48 z M186.89999999999998 7.26 l0 4.96 q0.62 -0.36 1.38 -0.48 q0.56 -0.1 1.44 -0.1 l2.84 0 q1.18 0 1.84 -0.54 q0.7 -0.58 0.7 -1.74 q0 -1.1 -0.74 -1.64 q-0.64 -0.46 -1.8 -0.46 l-5.66 0 z M193.27999999999997 17.64 l-1.82 -3.82 l-1.74 0 q-0.82 0 -1.44 0.1 q-0.76 0.14 -1.38 0.48 l0 5.6 l-2.18 0 l0 -14.92 l7.84 0 q1.38 0 2.44 0.52 t1.64 1.48 q0.62 1.02 0.62 2.4 q0 1.68 -0.9 2.76 t-2.54 1.5 l1.16 2.38 q0.5 0.74 0.78 1.04 q0.34 0.38 0.65 0.51 t0.81 0.13 l0.22 0 l0.48 -0.02 l0 2.22 q-1.16 0 -1.72 -0.08 q-0.94 -0.16 -1.6 -0.62 q-0.78 -0.56 -1.32 -1.66 z"></path></g>
			</g>
		</svg>
	