<?xml version="1.0" encoding="UTF-8" standalone="no"?>
<svg
   version="1.1"
   width="937.49994"
   height="465.13242"
   viewBox="0 0 937.49994 465.1324"
   id="svg14"
   sodipodi:docname="initials-long.svg"
   inkscape:version="1.2 (dc2aedaf03, 2022-05-15)"
   xmlns:inkscape="http://www.inkscape.org/namespaces/inkscape"
   xmlns:sodipodi="http://sodipodi.sourceforge.net/DTD/sodipodi-0.dtd"
   xmlns="http://www.w3.org/2000/svg"
   xmlns:svg="http://www.w3.org/2000/svg">
  <defs
     id="defs18" />
  <sodipodi:namedview
     id="namedview16"
     pagecolor="#ffffff"
     bordercolor="#000000"
     borderopacity="0.25"
     inkscape:showpageshadow="2"
     inkscape:pageopacity="0.0"
     inkscape:pagecheckerboard="0"
     inkscape:deskcolor="#d1d1d1"
     showgrid="false"
     inkscape:zoom="0.75921568"
     inkscape:cx="376.04597"
     inkscape:cy="228.52531"
     inkscape:window-width="1278"
     inkscape:window-height="1360"
     inkscape:window-x="0"
     inkscape:window-y="0"
     inkscape:window-maximized="0"
     inkscape:current-layer="g12" />
  <g
     transform="matrix(9.375,0,0,9.375,-3.7371107e-5,-1.0584375e-6)"
     id="g12">
    <defs
       id="SvgjsDefs1104" />
    <g
       id="SvgjsG1105"
       featureKey="monogramFeature-0"
       transform="matrix(0.75481703,0,0,0.75481703,6.2956032,4.959148)"
       fill="#111111"
       style="fill:#000000">
      <path
         d="m 111.2466,-6.3024182 c 0.48,4.98e-5 0.9,0.42 0.9,0.96 0,0.48 -0.42,0.90053 -0.9,0.9 L 59.1,-4.5 C 57,-0.84 33,41.16 27.48,47.94 c -6.72,8.22 -13.5,10.2 -18.54,10.2 -2.7,0 -4.92,-0.54 -6.3,-1.08 -6.3,-2.28 -11.04,-7.92 -10.98,-13.14 0.06,-3.78 2.46,-6.6 6.72,-8.04 0.48,-0.18 1.02,0.06 1.2,0.6 0.12,0.48 -0.12,1.02 -0.6,1.14 -3.54,1.2 -5.4,3.36 -5.46,6.3 0,4.44 4.14,9.36 9.72,11.4 3.72,1.32 13.26,3.12 22.8,-8.58 C 31.08,40.56 52.92,2.52 56.94,-4.5 L 4.6850807,-4.453467 c -0.5399998,4.809e-4 -0.96,-0.42 -0.96,-0.9 0,-0.54 0.42,-0.960056 0.96,-0.96 z M 122.58,-6.3 c 0.36,-0.36 0.96,-0.36 1.32,0 0.36,0.42 0.3,0.96 -0.06,1.32 l -66.42,63.9 c -0.18,0.18 -0.42,0.24 -0.66,0.24 -0.12,0 -0.24,-0.06 -0.36,-0.12 -0.36,-0.12 -0.6,-0.54 -0.54,-0.9 L 61.92,-5.7 c 0.06,-0.54 0.474192,-0.3406343 1.014192,-0.2806343 0.48,0 0.905808,-0.079366 0.905808,0.4606343 L 57.96,55.8 Z"
         id="path3"
         style="fill:#000000"
         sodipodi:nodetypes="sssccscccccccccssssccccsccccccc" />
    </g>
  </g>
</svg>
